<?xml version="1.0" standalone="no"?><!DOCTYPE svg PUBLIC "-//W3C//DTD SVG 1.1//EN" "http://www.w3.org/Graphics/SVG/1.1/DTD/svg11.dtd"><svg class="icon" width="16px" height="16.00px" viewBox="0 0 1024 1024" version="1.1" xmlns="http://www.w3.org/2000/svg"><path fill="#ffffff" d="M938.666667 405.333333a213.418667 213.418667 0 0 0-171.818667-209.28A128 128 0 0 0 640 85.333333H384a128 128 0 0 0-126.848 110.72A213.418667 213.418667 0 0 0 85.333333 405.333333v298.666667a213.333333 213.333333 0 0 0 213.333334 213.333333h426.666666a213.333333 213.333333 0 0 0 213.333334-213.333333v-298.666667z m-213.333334-42.666666a42.666667 42.666667 0 0 1 42.666667-42.666667h42.666667a42.666667 42.666667 0 1 1 0 85.333333h-42.666667a42.666667 42.666667 0 0 1-42.666667-42.666666z m0 192a213.333333 213.333333 0 1 1-426.666666 0 213.333333 213.333333 0 0 1 426.666666 0z"  /></svg>