<?xml version="1.0" standalone="no"?><!DOCTYPE svg PUBLIC "-//W3C//DTD SVG 1.1//EN" "http://www.w3.org/Graphics/SVG/1.1/DTD/svg11.dtd"><svg class="icon" width="16px" height="16.00px" viewBox="0 0 1024 1024" version="1.1" xmlns="http://www.w3.org/2000/svg"><path fill="#ffffff" d="M512 32c29.44 0 53.333333 23.893333 53.333333 53.333333v468.565334l100.949334-100.949334a53.333333 53.333333 0 0 1 75.434666 75.434667l-161.834666 161.834667a96 96 0 0 1-135.765334 0l-161.834666-161.834667a53.333333 53.333333 0 0 1 75.434666-75.434667l100.949334 100.949334V85.333333c0-29.44 23.893333-53.333333 53.333333-53.333333zM949.333333 682.666667A266.666667 266.666667 0 0 1 682.666667 949.333333H341.333333A266.666667 266.666667 0 0 1 74.666667 682.666667v-128a53.333333 53.333333 0 1 1 106.666666 0v128A160 160 0 0 0 341.333333 842.666667h341.333334A160 160 0 0 0 842.666667 682.666667v-128a53.333333 53.333333 0 1 1 106.666666 0v128z"  /></svg>