<?xml version="1.0" standalone="no"?><!DOCTYPE svg PUBLIC "-//W3C//DTD SVG 1.1//EN" "http://www.w3.org/Graphics/SVG/1.1/DTD/svg11.dtd"><svg class="icon" width="16px" height="16.00px" viewBox="0 0 1024 1024" version="1.1" xmlns="http://www.w3.org/2000/svg"><path fill="#ffffff" d="M512 42.666667C252.8 42.666667 42.666667 252.8 42.666667 512s210.133333 469.333333 469.333333 469.333333 469.333333-210.133333 469.333333-469.333333S771.2 42.666667 512 42.666667zM128 512a384 384 0 1 1 768 0 384 384 0 0 1-768 0z m576-213.333333a64 64 0 1 0 0 128 64 64 0 0 0 0-128zM256 362.666667a64 64 0 1 1 128 0 64 64 0 0 1-128 0z m88.746667 226.176a42.666667 42.666667 0 1 0-83.626667 16.981333 256.085333 256.085333 0 0 0 501.76 0 42.666667 42.666667 0 1 0-83.626667-16.981333 170.752 170.752 0 0 1-334.506666 0z"  /></svg>