<?xml version="1.0" standalone="no"?><!DOCTYPE svg PUBLIC "-//W3C//DTD SVG 1.1//EN" "http://www.w3.org/Graphics/SVG/1.1/DTD/svg11.dtd"><svg class="icon" width="16px" height="16.00px" viewBox="0 0 1024 1024" version="1.1" xmlns="http://www.w3.org/2000/svg"><path fill="#ffffff" d="M469.034667 180.778667a74.666667 74.666667 0 0 1 85.930666 0l256 180.138666c19.882667 13.994667 31.701333 36.778667 31.701334 61.098667V768A74.666667 74.666667 0 0 1 768 842.666667h-74.666667V597.333333A138.666667 138.666667 0 0 0 554.666667 458.666667h-85.333334A138.666667 138.666667 0 0 0 330.666667 597.333333v245.333334H256A74.666667 74.666667 0 0 1 181.333333 768V421.973333c0-24.277333 11.818667-47.061333 31.701334-61.013333l256-180.181333zM437.333333 842.666667V597.333333a32 32 0 0 1 32-32h85.333334a32 32 0 0 1 32 32v245.333334h-149.333334z m179.029334-749.098667a181.333333 181.333333 0 0 0-208.725334 0l-256 180.138667A181.333333 181.333333 0 0 0 74.666667 421.973333V768A181.333333 181.333333 0 0 0 256 949.333333h512A181.333333 181.333333 0 0 0 949.333333 768V421.973333a181.333333 181.333333 0 0 0-76.970666-148.266666l-256-180.138667z"  /></svg>