<?xml version="1.0" standalone="no"?><!DOCTYPE svg PUBLIC "-//W3C//DTD SVG 1.1//EN" "http://www.w3.org/Graphics/SVG/1.1/DTD/svg11.dtd"><svg class="icon" width="16px" height="16.00px" viewBox="0 0 1024 1024" version="1.1" xmlns="http://www.w3.org/2000/svg"><path fill="#ffffff" d="M298.666667 128a213.333333 213.333333 0 0 0-213.333334 213.333333v341.333334a213.333333 213.333333 0 0 0 213.333334 213.333333h426.666666a213.333333 213.333333 0 0 0 213.333334-213.333333V341.333333a213.333333 213.333333 0 0 0-213.333334-213.333333H298.666667z m213.333333 213.333333a85.333333 85.333333 0 1 1-170.666667 0 85.333333 85.333333 0 0 1 170.666667 0z m-227.328 186.026667a64 64 0 0 1 111.957333 0.725333l36.650667 67.157334a42.666667 42.666667 0 0 0 74.24 1.194666l106.154667-180.48c28.288-48.085333 99.370667-43.008 120.490666 8.618667l116.437334 284.586667A42.666667 42.666667 0 0 1 811.093333 768H222.293333a42.666667 42.666667 0 0 1-37.205333-63.573333l99.584-177.066667z"  /></svg>