<?xml version="1.0" standalone="no"?><!DOCTYPE svg PUBLIC "-//W3C//DTD SVG 1.1//EN" "http://www.w3.org/Graphics/SVG/1.1/DTD/svg11.dtd"><svg class="icon" width="16px" height="16.00px" viewBox="0 0 1024 1024" version="1.1" xmlns="http://www.w3.org/2000/svg"><path fill="#ffffff" d="M206.762667 260.309333C265.642667 197.290667 335.189333 148.48 405.333333 148.48c76.330667 0 150.698667 56.405333 210.688 124.245333 9.429333 10.666667 18.304 21.376 26.496 31.829334 6.826667 67.754667 14.848 166.186667 12.117334 267.648-2.816 104.405333-16.938667 206.464-51.541334 281.130666H533.333333v-149.333333A106.666667 106.666667 0 0 0 426.666667 597.333333H384a106.666667 106.666667 0 0 0-106.666667 106.666667V853.333333H207.530667c-34.56-74.666667-48.725333-176.682667-51.541334-281.173333-2.688-100.949333 5.248-198.869333 12.032-266.581333a716.8 716.8 0 0 1 38.741334-45.226667z m530.858666 164.522667a42.666667 42.666667 0 0 0 46.634667-61.909333l-0.042667-0.085334-2.048-3.712c-1.28-2.261333-3.114667-5.504-5.504-9.557333a881.322667 881.322667 0 0 0-96.682666-133.376C617.301333 145.365333 520.96 63.146667 405.333333 63.146667c-107.52 0-198.613333 72.106667-260.992 138.922666A899.925333 899.925333 0 0 0 26.88 362.069333a42.666667 42.666667 0 0 0 46.208 62.72 1883.306667 1883.306667 0 0 0-2.389333 149.674667c2.517333 93.269333 13.653333 193.92 44.672 278.869333H85.333333a42.666667 42.666667 0 1 0 0 85.333334h896a42.666667 42.666667 0 1 0 0-85.333334h-12.8l1.706667-11.093333c5.461333-37.12 11.093333-87.338667 11.093333-138.24v-36.138667a213.333333 213.333333 0 0 0-194.005333-212.48l-48.469333-4.394666a2143.061333 2143.061333 0 0 0-1.28-26.154667z m2.901334 112l39.082666 3.541333A128 128 0 0 1 896 667.861333v36.138667c0 45.141333-5.034667 90.88-10.24 125.781333-1.28 8.618667-2.56 16.554667-3.712 23.552h-186.752c31.018667-84.906667 42.154667-185.6 44.672-278.869333 0.341333-12.629333 0.512-25.173333 0.554667-37.632zM448 704V853.333333h-85.333333v-149.333333A21.333333 21.333333 0 0 1 384 682.666667h42.666667a21.333333 21.333333 0 0 1 21.333333 21.333333z"  /></svg>