<?xml version="1.0" standalone="no"?><!DOCTYPE svg PUBLIC "-//W3C//DTD SVG 1.1//EN" "http://www.w3.org/Graphics/SVG/1.1/DTD/svg11.dtd"><svg class="icon" width="16px" height="16.00px" viewBox="0 0 1024 1024" version="1.1" xmlns="http://www.w3.org/2000/svg"><path fill="#ffffff" d="M224 112c-44.16 0-80 35.84-80 80v640c0 44.16 35.84 80 80 80h576c44.16 0 80-35.84 80-80V192c0-44.16-35.84-80-80-80h-64a48 48 0 0 1 0-96h64A176 176 0 0 1 976 192v640a176 176 0 0 1-176 176h-576A176 176 0 0 1 48 832V192A176 176 0 0 1 224 16h64a48 48 0 0 1 0 96h-64zM400 64A48 48 0 0 1 448 16h128a48 48 0 0 1 0 96H448A48 48 0 0 1 400 64zM512 304a80 80 0 0 1 0.448 160h-0.896A80 80 0 0 1 512 304z m135.808 192a176 176 0 1 0-271.616 0A304 304 0 0 0 208 768a48 48 0 0 0 96 0 208 208 0 0 1 207.424-208h1.152A208 208 0 0 1 720 768a48 48 0 0 0 96 0 304 304 0 0 0-168.192-272z"  /></svg>